<svg xmlns="http://www.w3.org/2000/svg" width="308.522" height="48.118" viewBox="0 0 308.522 48.118">
  <path id="Color_Overlay" data-name="Color Overlay" d="M761.63,171.416c-10.071,0-9.413-9.39-9.413-9.39V140.512c0-10.124,10.5-10.128,10.5-10.128h27.221a13.888,13.888,0,0,0-5.346,9.649H766.612c-4.451,0-4.82,3.088-4.82,3.088v14.268c0,3,3.224,3.491,3.224,3.491l-4.759,5.652,3.827,4.884Zm223.32-4.51a19.164,19.164,0,0,0,4.144-7.339q.945-3.6.9-11.525V131.519h17.475a1.943,1.943,0,0,1,1.55.446,1.8,1.8,0,0,1,.508,1.255V162.4a12.867,12.867,0,0,1-.439,3.525,6.4,6.4,0,0,1-1.471,2.632c-.7.772-2.171,1.213-4.387,1.354-2.215.124-4.265.184-6.139.184-.506-2.352-.959-4.209-1.381-5.576l5.213.09q3.178,0,3.173-3.949v-2.543h-9.259A27.515,27.515,0,0,1,989.5,171.18Q987.457,169.06,984.949,166.906Zm10.416-14.116h8.73V147.5h-8.668C995.436,149.278,995.427,151.041,995.365,152.79Zm.062-10.624h8.668V136.93h-8.668ZM797.646,169.786a13.931,13.931,0,0,0,4.552-9.166,4.458,4.458,0,0,0,2.165,1.049H820.1c4.035,0,5.256-4.337,5.256-4.337V144.216a4.5,4.5,0,0,0-3.048-4.575h-6.348l-4.093-4.919,3.479-4.96h9.48s10.695,1.635,10.695,9.818V162.3c0,8.186-9.906,8.849-9.906,8.849h-23.5l-.15,0A8,8,0,0,1,797.646,169.786Zm-60.772,1.291v-12.4H721.76l1.7-8.761,13.412-.022v-8.408h-8.689c-5.929,0-10.687,6.083-10.687,6.083l-4.814,23.508H701.005l5.482-25.841a22.726,22.726,0,0,1,20.6-14.558H751.81s-3.767,2.074-3.767,8.532V165.7s.393,5.455,4.168,5.455Zm32.6,0-3.833-4.3,4.459-5.11h14.165s3.7-1.624,4.117-5.4V143.256s-1.657-13.494,15.662-13.494h5.929l-3.1,4.761,3.1,5.118h-5.929a5.566,5.566,0,0,0-5.484,3.614v17.336c-2.113,9.828-12.116,10.485-12.116,10.485Zm158.272-2.687a62.607,62.607,0,0,0,5-9.018l5.013,2.2q-2.142,4.444-5.181,9.432Zm31.195-6.88,4.916-1.989q2.462,4.244,4.844,9.315l-5.129,1.952C961.848,167.161,960.3,164.068,958.939,161.51Zm-107.728,4.55q8.74-.8,11.948-4.826H852.542v-4.41h12.4a10.179,10.179,0,0,0,.082-1.822h5.17a14.721,14.721,0,0,1,.013,1.822h12.831v4.41H871.349q4.475,3.758,12.355,4.334-1.922,3.085-2.919,5.107-8.433-1.829-13.145-6.562c-2.574,3.258-7.077,5.483-13.549,6.657A28.405,28.405,0,0,0,851.211,166.06Zm-8.454,2.7c1.379-4.648,2.72-9.882,3.994-15.651a49.155,49.155,0,0,0,5.168,1.961c-1.376,5.112-2.694,10.245-3.919,15.4A49.576,49.576,0,0,0,842.757,168.762Zm57.128,1.59V152.369h21.9a2.718,2.718,0,0,1,1.572.455,2.2,2.2,0,0,1,.464,1.474v15.974H918.7v-1.542H904.981v1.621Zm14.346-5.417H918.7v-2.668h-4.467Zm-9.251,0h4.445v-2.668h-4.445Zm9.251-6.1H918.7v-2.665h-4.467Zm-9.251,0h4.445v-2.665h-4.445Zm34.356,3.111,5.293-1.378c1.174,2.831,2.244,5.639,3.212,8.457l-5.583,1.319C941.224,167.131,940.252,164.31,939.336,161.941Zm-51.546,4.419A5.145,5.145,0,0,0,889,162.566v-6.947h-4.049v-4.7H889v-4.086h-1.212c-.447.726-.909,1.415-1.373,2.083-.5-2.438-1.059-4.67-1.679-6.7a41.163,41.163,0,0,0,4.595-12.87l4.92.841c-.309,1.412-.643,2.79-1,4.118h4.383v4.659h-5.971c-.374,1.084-.819,2.14-1.286,3.163h6.835v4.7h-3.121v4.086h4.37v4.7h-4.37v5.453c.742-.616,1.928-1.554,3.544-2.835a42.784,42.784,0,0,0,.659,5.913,50.085,50.085,0,0,0-5.667,4.239c-.4.309-1.1.937-2.13,1.884Zm61.429-4.581,5.135-1.508c.995,2,2.225,4.724,3.669,8.167l-5.421,1.579C951.32,166.692,950.2,163.939,949.22,161.78Zm22.882,3.291v-32.8h12.784a2.007,2.007,0,0,1,1.634.536,1.843,1.843,0,0,1,.495,1.523v27.9h-9.494v2.843Zm5.143-7.823h4.246v-7.5h-4.246Zm0-12.5h4.246v-7.486h-4.246Zm-29.906,14.279V146.592h17.106a2.19,2.19,0,0,1,1.8.613,1.892,1.892,0,0,1,.568,1.526v10.3Zm5.051-4.332h9.382V150.92H952.39Zm-22.655,4.046V131.519h12.951a1.93,1.93,0,0,1,1.607.618,2.192,2.192,0,0,1,.474,1.455v25.15Zm5.181-4.751h4.665v-6.583h-4.665Zm0-11.321h4.665v-6.4h-4.665ZM877.53,155.619V137.185h-19.1v14.539A22.535,22.535,0,0,0,864.083,148h-4.821v-3.826h6.507v-6.238h4.2v6.238h6.721V148h-6.721v3.059l2.01-2.6a54.029,54.029,0,0,1,5.21,3.45l-2.376,3.368a49.288,49.288,0,0,0-4.844-3.483v2.49h-4.2V151.14a26.337,26.337,0,0,1-5.3,4.222q-.612-.787-2.043-2.363v2.621h-4.673v-22.6h8.758c.377-1.238.712-2.491,1-3.739l6.133.739-1.42,3h11.169a3.867,3.867,0,0,1,2.178.851,4.276,4.276,0,0,1,.627,2.3v19.448Zm31.86-4.03V141h-6.505v1.718h5.339v3.2h-7.678v-1.076h-2.252v-7.781h11.1v-2.087h-9.878v-4.118h24.974v4.118H914.309v2.087h9.224s1.454.025,1.808.551a2.908,2.908,0,0,1,.394,1.517v5.55h-2.413v1.238h-7.8v-3.2h5.637V141h-6.85v10.592Zm6.133-.966v-3.214H923.9v3.214Zm-15.684,0v-3.214h8.385v3.214Zm-57.758-5.784,3.412-3.952q3.183,2.33,6.594,5.236l-3.751,4.5C846.447,148.785,844.365,146.865,842.08,144.839Zm103.836-2.75a7.757,7.757,0,0,0,4.8-6.157H946.59v-4.58h18.868a2.084,2.084,0,0,1,1.709.614,1.862,1.862,0,0,1,.464,1.458l-.183,5.79a5.935,5.935,0,0,1-1.208,4.075,5,5,0,0,1-3.018,1.646,37.266,37.266,0,0,1-6.739.111c-.34-1.745-.7-3.3-1.085-4.616,2.254.22,3.883.337,4.92.337.871,0,1.407-.27,1.6-.8a16.918,16.918,0,0,0,.351-4.039H955.81q-.942,7.233-6.089,10.233A50.51,50.51,0,0,0,945.915,142.088Zm-75.6-.244q2.017-2.217,3.709-4.207l3.045,2.334q-1.743,1.962-4.038,4.116Zm-11.464-2.037,2.918-2.216q1.991,1.963,3.723,4.009l-3.094,2.4Q860.511,141.595,858.848,139.808Zm-15.521-6.122,3.425-3.826c1.957,1.437,4.116,3.187,6.509,5.246l-3.885,4.19C847.571,137.5,845.555,135.624,843.326,133.686Zm-10.7-5.56a4.842,4.842,0,1,1,4.843,4.836A4.841,4.841,0,0,1,832.629,128.126Zm1.385,0a3.46,3.46,0,1,0,3.458-3.452A3.463,3.463,0,0,0,834.014,128.126Zm4.686,2.2-1.219-1.847h-.868v1.847h-.847v-4.576h1.76c1.11,0,1.941.335,1.941,1.324a1.319,1.319,0,0,1-1.124,1.312l1.314,1.939Zm-2.087-2.425h.81c.781,0,1.2-.274,1.2-.827s-.423-.746-1.2-.746h-.81Z" transform="translate(-701.005 -123.298)" fill="#00bebe"/>
</svg>
