<svg xmlns="http://www.w3.org/2000/svg" width="1112.715" height="173.541" viewBox="0 0 1112.715 173.541"><g transform="translate(-701.005 -123.298)"><g transform="translate(701.006 123.298)"><g transform="translate(0 0)"><path d="M282.337,402.5H260.954c-15.752,0-19.78,13.037-19.78,13.037V478.06c-7.621,35.446-43.694,37.814-43.694,37.814H136.274l-13.826-15.5,16.084-18.431h51.086s13.356-5.858,14.846-19.488V415.537s-5.975-48.669,56.489-48.669h21.383l-11.192,17.173Z" transform="translate(110.658 -343.558)" fill="#197a6a"/><path d="M291.044,402.281c0-29.512-38.572-35.413-38.572-35.413h-34.19l-12.544,17.889L220.5,402.5h22.894s10.993,2.949,10.993,16.5v47.3s-4.4,15.642-18.956,15.642H178.681s-2.552,0-7.81-3.779c0,0-.362,18.283-16.416,33.057a28.748,28.748,0,0,0,16.1,4.923h84.755s35.729-2.389,35.729-31.913Z" transform="translate(194.087 -343.558)" fill="#197a6a"/><path d="M160.969,402.292H225.8c1.687-22.46,19.28-34.8,19.28-34.8H146.9s-37.855.013-37.855,36.528v77.592s-2.374,33.867,33.95,33.867h8.849l-13.8-17.618,17.166-20.382s-11.628-1.765-11.628-12.591V413.429s1.332-11.137,17.386-11.137" transform="translate(75.647 -341.936)" fill="#197a6a"/><path d="M242.49,513.759c-13.616,0-15.033-19.674-15.033-19.674V398.559c0-23.3,13.586-30.773,13.586-30.773H151.886s-52.283-1.245-74.3,52.5l-19.77,93.2H99.937L117.3,428.7s17.159-21.94,38.541-21.94h31.336v30.324l-48.37.079-6.141,31.6h54.511v44.726Z" transform="translate(-57.815 -341.172)" fill="#197a6a"/><path d="M206.906,395.258a17.426,17.426,0,1,1,17.46-17.443,17.477,17.477,0,0,1-17.46,17.443m0-29.889a12.456,12.456,0,1,0,12.486,12.446,12.482,12.482,0,0,0-12.486-12.446" transform="translate(285.272 -360.405)" fill="#197a6a"/><g transform="translate(486.026 8.825)"><path d="M203.157,379.355l-4.395-6.66h-3.132v6.66h-3.055v-16.5h6.345c4,0,7,1.21,7,4.775,0,2.557-1.608,4.083-4.055,4.732l4.74,7Zm-7.526-8.745h2.92c2.818,0,4.344-.986,4.344-2.982s-1.526-2.689-4.344-2.689h-2.92Z" transform="translate(-192.576 -362.852)" fill="#197a6a"/></g></g><g transform="translate(508.795 21.586)"><path d="M211.2,408.239q11.481,8.4,23.784,18.884l-13.532,16.23q-10.206-9.94-22.559-20.86Zm4.546,44.087a177.691,177.691,0,0,0,18.636,7.072c-4.961,18.436-9.714,36.948-14.132,55.532a178.637,178.637,0,0,0-18.912-6.158c4.974-16.765,9.808-35.639,14.407-56.447m0-83.857c7.054,5.185,14.844,11.5,23.473,18.922L225.2,402.5c-6.506-6.471-13.777-13.248-21.817-20.237Zm65.891,90.677h18.647a53.559,53.559,0,0,1,.051,6.573h46.275v15.9H304.452q16.137,13.554,44.56,15.632-6.933,11.124-10.528,18.416-30.416-6.594-47.411-23.665c-9.283,11.751-25.522,19.776-48.863,24.011-4.1-7.923-7.557-13.556-10.388-16.99q31.523-2.873,43.095-17.4H236.624v-15.9h44.713a36.782,36.782,0,0,0,.3-6.573m2.7-61.555h15.16v22.5h24.241v13.8H299.488v11.03l7.248-9.37a195.149,195.149,0,0,1,18.792,12.441l-8.57,12.148a178.038,178.038,0,0,0-17.47-12.563v8.982h-15.16V445.215a94.861,94.861,0,0,1-19.106,15.227c-1.47-1.892-3.918-4.742-7.368-8.522v9.451H241v-81.5h31.587c1.36-4.467,2.568-8.985,3.6-13.483l22.123,2.664-5.125,10.818h40.282s5.579.448,7.856,3.072c2.284,2.654,2.264,8.285,2.264,8.285v70.143H326.743V394.889h-68.89v52.435a81.35,81.35,0,0,0,20.393-13.434H260.86v-13.8h23.468Zm-14.441-1.235q7.186,7.078,13.43,14.458l-11.161,8.669q-6.791-8.691-12.792-15.135Zm44.2.163,10.982,8.417q-6.286,7.071-14.566,14.843l-9.79-8.086q7.27-8,13.374-15.174" transform="translate(-198.889 -366.39)" fill="#197a6a"/><path d="M288.058,401.144H266.522c-1.35,3.912-2.956,7.719-4.64,11.409h24.65v16.959H275.277v14.738h15.763V461.2H275.277v19.666c2.677-2.218,6.952-5.605,12.782-10.225a154.546,154.546,0,0,0,2.376,21.327A180.471,180.471,0,0,0,270,507.253c-1.434,1.115-3.971,3.379-7.685,6.795l-9.757-14.111c2.892-2.837,4.372-7.414,4.372-13.684V461.2h-14.6V444.251h14.6V429.513h-4.372c-1.613,2.62-3.28,5.1-4.954,7.513-1.82-8.794-3.818-16.844-6.051-24.151a148.448,148.448,0,0,0,16.569-46.417l17.746,3.031c-1.115,5.094-2.317,10.062-3.614,14.85h15.809Zm6.769-29.265H384.9v14.85h-36.7v7.526h33.268s5.245.092,6.521,1.987a10.493,10.493,0,0,1,1.422,5.47V421.73h-8.7V426.2H352.571V414.657H372.9v-6.2H348.194v38.2H330.454v-38.2H306.991v6.2h19.254V426.2H298.556v-3.879h-8.121V394.255h40.019V386.73H294.827ZM296,431.586h30.242v11.593H296Zm.173,17.891h78.984s4-.021,5.674,1.64c1.85,1.826,1.669,5.318,1.669,5.318v57.613H364.026v-5.559H314.551v5.845H296.177Zm18.374,23.3h16.033v-9.611H314.551Zm0,22.019h16.033v-9.622H314.551Zm49.475-31.631h-16.11v9.611h16.11ZM347.916,494.8h16.11v-9.622h-16.11Zm4.655-63.211H382.79v11.593H352.571Z" transform="translate(-87.692 -366.215)" fill="#197a6a"/><path d="M302.591,469.539l18.08,7.943q-7.726,16.029-18.685,34.02l-17.432-9.441a225.627,225.627,0,0,0,18.037-32.522M291.733,369.087h46.709s3.818-.395,5.8,2.229a7.911,7.911,0,0,1,1.71,5.249v90.708H291.733Zm35.512,17.142H310.421v23.076h16.824Zm0,40.165H310.421v23.743h16.824Zm18.205,47.444c4.232,10.21,8.091,20.339,11.585,30.5L336.9,509.1c-3.734-11.577-7.238-21.749-10.538-30.291ZM352.523,385V368.482h68.053s3.918-.476,6.161,2.216a6.711,6.711,0,0,1,1.677,5.256l-.658,20.884q0,9.86-4.357,14.7a18.02,18.02,0,0,1-10.883,5.936c-4.421.759-12.516.912-24.305.4-1.228-6.293-2.537-11.886-3.918-16.648,8.129.792,14.007,1.217,17.746,1.217,3.144,0,5.074-.973,5.786-2.868.689-1.923,1.138-6.767,1.266-14.567H385.773q-3.4,26.088-21.959,36.905a182.326,182.326,0,0,0-13.723-14.7c9.591-4.029,15.349-11.476,17.317-22.205Zm2.7,38.446h61.693a7.912,7.912,0,0,1,6.5,2.211c2.575,2.875,2.047,5.506,2.047,5.506V468.3h-70.24Zm25.3,49.336c3.588,7.2,8.024,17.038,13.233,29.458l-19.55,5.695c-4.63-12-8.683-21.925-12.2-29.713Zm26.747-33.724H373.441v13.623h33.835Zm7.514,31.017q8.882,15.307,17.47,33.594l-18.5,7.042c-6.21-13.08-11.8-24.235-16.7-33.462Z" transform="translate(24.405 -361.024)" fill="#197a6a"/><path d="M328.912,371.378h46.109a7.228,7.228,0,0,1,5.893,1.933A6.642,6.642,0,0,1,382.7,378.8v100.62H348.457v10.253H328.912Zm33.863,18.011H347.461v27h15.313Zm0,45.039H347.461v27.036h15.313Zm28.891,77.284q-7.373-7.644-16.421-15.416c7.687-9.059,12.662-17.853,14.946-26.471,2.272-8.662,3.379-22.49,3.249-41.566V368.671h63.025s3.573-.547,5.592,1.61a6.484,6.484,0,0,1,1.83,4.528V480.036a46.375,46.375,0,0,1-1.585,12.713,23.076,23.076,0,0,1-5.309,9.489c-2.537,2.786-7.828,4.378-15.819,4.885-7.989.446-15.382.66-22.141.66-1.825-8.481-3.461-15.179-4.982-20.107l18.8.323q11.462,0,11.444-14.244v-9.168H410.9q-4.6,28.747-19.236,47.125m21.145-66.325H444.3V426.3h-31.26c.031,6.415,0,12.775-.224,19.083m31.484-57.2h-31.26v18.889H444.3Z" transform="translate(140.027 -360.608)" fill="#197a6a"/></g></g><path d="M218.646,173.54c-36.322,0-33.949-33.865-33.949-33.865V62.082c0-36.513,37.854-36.526,37.854-36.526h98.173s-17.593,12.341-19.281,34.8H236.615c-16.054,0-17.385,11.137-17.385,11.137v51.458c0,10.828,11.627,12.591,11.627,12.591l-17.165,20.385,13.8,17.616Zm805.423-16.265c7.687-9.059,12.659-17.853,14.944-26.471q3.408-12.99,3.249-41.567V29.648h63.026s3.574-.545,5.59,1.61a6.48,6.48,0,0,1,1.831,4.528V141.013a46.4,46.4,0,0,1-1.584,12.714,23.084,23.084,0,0,1-5.307,9.491c-2.538,2.785-7.829,4.375-15.821,4.882-7.988.448-15.382.662-22.141.662-1.824-8.482-3.46-15.181-4.982-20.109l18.8.325q11.461,0,11.445-14.243v-9.17h-33.394q-4.6,28.746-19.235,47.124Q1033.114,165.046,1024.069,157.275Zm37.565-50.909h31.485V87.283h-31.261C1061.891,93.7,1061.858,100.056,1061.634,106.366Zm.224-38.315h31.261V49.163h-31.261ZM348.542,167.662c16.054-14.772,16.418-33.057,16.418-33.057,5.255,3.782,7.81,3.782,7.81,3.782h56.749c14.551,0,18.956-15.642,18.956-15.642v-47.3c0-13.552-10.994-16.5-10.994-16.5H414.587L399.824,41.2,412.37,23.312h34.189s38.572,5.9,38.572,35.41v81.95c0,29.525-35.728,31.914-35.728,31.914H364.648c-.182,0-.36.006-.542.006A28.838,28.838,0,0,1,348.542,167.662Zm-219.178,4.655V127.591H74.851L80.993,96l48.371-.078V65.594H98.027c-21.384,0-38.542,21.939-38.542,21.939L42.123,172.317H0l19.771-93.2c22.017-53.749,74.3-52.506,74.3-52.506H183.23s-13.587,7.479-13.587,30.771v95.528s1.418,19.674,15.032,19.674Zm117.568,0-13.824-15.5,16.083-18.43h51.088s13.354-5.859,14.847-19.489V71.979s-5.976-48.666,56.486-48.666h21.384L381.8,40.483l11.192,18.46H371.611c-15.752,0-19.777,13.036-19.777,13.036V134.5c-7.622,35.446-43.7,37.815-43.7,37.815Zm570.823-9.692A225.8,225.8,0,0,0,835.792,130.1l18.08,7.946q-7.727,16.028-18.687,34.017Zm112.507-24.812,17.729-7.173q8.881,15.308,17.469,33.6l-18.5,7.04C940.752,158.194,935.156,147.041,930.261,137.813ZM541.73,154.224q31.521-2.873,43.093-17.4H546.531V120.914h44.713a36.7,36.7,0,0,0,.3-6.573h18.648a53.1,53.1,0,0,1,.049,6.573h46.277v15.905H614.358q16.14,13.555,44.56,15.632-6.933,11.125-10.527,18.417-30.416-6.6-47.41-23.666c-9.283,11.75-25.523,19.774-48.864,24.01C548.014,163.29,544.561,157.658,541.73,154.224Zm-30.489,9.744c4.973-16.765,9.809-35.64,14.405-56.447a177.3,177.3,0,0,0,18.638,7.073c-4.963,18.437-9.715,36.948-14.133,55.531A178.782,178.782,0,0,0,511.241,163.968ZM717.28,169.7V104.847h78.986s4-.019,5.671,1.642c1.853,1.824,1.672,5.317,1.672,5.317v57.612H785.129v-5.56H735.655V169.7Zm51.74-19.537h16.109v-9.621H769.02Zm-33.365,0h16.031v-9.621H735.655Zm33.365-22.017h16.109v-9.611H769.02Zm-33.365,0h16.031v-9.611H735.655Zm123.907,11.221,19.089-4.97c4.233,10.208,8.092,20.339,11.585,30.5L870.1,169.662C866.369,158.087,862.863,147.914,859.562,139.371Zm-185.9,15.938c2.892-2.837,4.372-7.414,4.372-13.685V116.568h-14.6V99.621h14.6V84.884h-4.372c-1.613,2.62-3.279,5.1-4.953,7.511-1.821-8.793-3.821-16.843-6.054-24.15a148.461,148.461,0,0,0,16.571-46.417l17.746,3.032c-1.114,5.093-2.318,10.062-3.613,14.85h15.808v16.8H687.625c-1.35,3.911-2.954,7.719-4.638,11.409h24.65v16.96H696.379V99.621h15.762v16.947H696.379v19.667c2.678-2.22,6.953-5.606,12.782-10.225a154.315,154.315,0,0,0,2.376,21.326A180.662,180.662,0,0,0,691.1,162.624c-1.432,1.113-3.97,3.379-7.683,6.794Zm221.551-16.522,18.521-5.44c3.587,7.2,8.024,17.038,13.234,29.457l-19.55,5.7C902.781,156.5,898.73,146.573,895.208,138.786Zm82.525,11.87V32.355h46.108a7.237,7.237,0,0,1,5.895,1.935,6.647,6.647,0,0,1,1.785,5.492V140.4H997.28v10.254Zm18.551-28.214H1011.6V95.408H996.284Zm0-45.076H1011.6v-27H996.284Zm-107.859,51.5V84.011h61.7a7.9,7.9,0,0,1,6.5,2.21c2.577,2.876,2.048,5.505,2.048,5.505v37.14Zm18.217-15.623h33.835V99.621H906.641Zm-81.707,14.59V29.648h46.709s3.817-.393,5.794,2.23a7.906,7.906,0,0,1,1.71,5.249v90.708ZM843.621,110.7h16.824V86.959H843.621Zm0-40.831h16.824V46.793H843.621Zm-206.97,46.7V50.085H567.759V102.52a81.279,81.279,0,0,0,20.394-13.435H570.765v-13.8h23.468v-22.5h15.162v22.5h24.241v13.8H609.395v11.033l7.248-9.371a194.877,194.877,0,0,1,18.791,12.442l-8.569,12.146a177.759,177.759,0,0,0-17.47-12.562v8.981H594.233V100.413a94.984,94.984,0,0,1-19.105,15.227q-2.206-2.839-7.368-8.524v9.452H550.906v-81.5h31.586c1.36-4.466,2.567-8.985,3.6-13.484l22.121,2.665-5.122,10.819h40.282s5.577.448,7.855,3.071c2.285,2.655,2.262,8.287,2.262,8.287v70.141Zm114.906-14.535v-38.2H728.1v6.2H747.35V81.567H719.659V77.688h-8.121V49.627h40.019V42.1H715.929V27.25H806V42.1H769.3v7.527h33.267s5.246.091,6.521,1.987a10.488,10.488,0,0,1,1.422,5.469V77.1h-8.7v4.466H773.675V70.028H794v-6.2H769.3v38.2Zm22.118-3.483V86.959h30.219V98.55Zm-56.567,0V86.959H747.35V98.55ZM508.8,77.688,521.1,63.435q11.481,8.4,23.783,18.885L531.356,98.55C524.549,91.922,517.038,84.995,508.8,77.688Zm374.493-9.92c9.592-4.028,15.35-11.474,17.317-22.205H885.724V29.045h68.051s3.918-.477,6.164,2.214a6.717,6.717,0,0,1,1.675,5.258L960.955,57.4q0,9.859-4.356,14.7a18.013,18.013,0,0,1-10.884,5.937c-4.421.76-12.516.912-24.305.4-1.227-6.294-2.535-11.887-3.915-16.648C925.623,62.575,931.5,63,935.241,63c3.142,0,5.073-.974,5.784-2.869.688-1.922,1.139-6.764,1.266-14.568H918.976q-3.4,26.088-21.962,36.906A182.147,182.147,0,0,0,883.29,67.769Zm-272.671-.88q7.274-7.995,13.376-15.175l10.981,8.417q-6.286,7.074-14.564,14.844Zm-41.347-7.346,10.523-7.991q7.182,7.079,13.428,14.457l-11.16,8.67Q575.272,65.988,569.272,59.543ZM513.292,37.465l12.354-13.8C532.7,28.85,540.49,35.16,549.121,42.587L535.108,57.7C528.6,51.227,521.333,44.453,513.292,37.465ZM474.711,17.411a17.463,17.463,0,1,1,17.466,17.44A17.46,17.46,0,0,1,474.711,17.411Zm5,0A12.479,12.479,0,1,0,492.177,4.963,12.49,12.49,0,0,0,479.707,17.411Zm16.9,7.917-4.4-6.661h-3.132v6.661h-3.055V8.826h6.346c4,0,7,1.207,7,4.775,0,2.558-1.607,4.083-4.054,4.733l4.739,6.995Zm-7.527-8.745H492c2.818,0,4.343-.987,4.343-2.983S494.82,10.91,492,10.91h-2.921Z" transform="translate(701.005 123.298)" fill="#00bebe"/></g></svg>