<svg xmlns="http://www.w3.org/2000/svg" width="30" height="30.137" viewBox="0 0 30 30.137">
  <path id="clipboard" d="M28.7,11.91,20.589,3.8a1.079,1.079,0,0,0-1.512,0L10.83,11.91a1.079,1.079,0,0,0,0,1.512l3.3,3.3-2.062,2.062-3.3-3.3a1.079,1.079,0,0,0-1.512,0l-8.11,8.11a1.079,1.079,0,0,0,0,1.512l8.11,8.11a.756.756,0,0,0,.687.412,1.05,1.05,0,0,0,.687-.275l8.11-8.11a1,1,0,0,0,0-1.375l-3.3-3.3L15.5,18.508l3.3,3.3a1,1,0,0,0,1.375,0l8.11-8.11a1.05,1.05,0,0,0,.275-.687c.412-.687.275-.962.137-1.1ZM14.678,24.419,7.943,31.154,1.208,24.419l6.735-6.735L10.555,20.3l-3.3,3.3,1.512,1.512,3.3-3.3,2.612,2.612Zm5.086-5.086-2.612-2.612,3.3-3.3L18.94,11.91l-3.3,3.3L13.029,12.6l6.735-6.735L26.5,12.6l-6.735,6.735Z" transform="translate(1.164 -3.491)" fill="#00bebe"/>
</svg>
