<svg xmlns="http://www.w3.org/2000/svg" width="33.383" height="27.193" viewBox="0 0 33.383 27.193">
  <g id="组_146"  transform="translate(-1418 -55)">
    <path id="路径_35"  d="M87.643,156.144a10.254,10.254,0,0,1,1.138.07c-1.022-4.761-6.112-8.3-11.922-8.3-6.495,0-11.815,4.427-11.815,10.049,0,3.245,1.77,5.91,4.728,7.977L68.59,169.5l4.13-2.071a20.2,20.2,0,0,0,4.139.593c.371,0,.739-.018,1.1-.047A8.8,8.8,0,0,1,77.6,165.5C77.6,160.333,82.031,156.144,87.643,156.144Zm-6.353-3.2a1.477,1.477,0,1,1,0,2.953,1.5,1.5,0,1,1,0-2.953Zm-8.269,2.953a1.5,1.5,0,1,1,0-2.953,1.477,1.477,0,0,1,0,2.953Z" transform="translate(1352.956 -92.916)" fill="#00bebe"/>
    <path id="路径_36"  d="M440.561,393.38c0-4.724-4.727-8.575-10.036-8.575-5.622,0-10.049,3.851-10.049,8.575s4.428,8.575,10.049,8.575a14.836,14.836,0,0,0,3.545-.593l3.241,1.775-.889-2.953C438.794,398.4,440.561,396.045,440.561,393.38ZM427.266,391.9a1.182,1.182,0,0,1,0-2.364,1.212,1.212,0,1,1,0,2.364Zm6.5,0a1.182,1.182,0,0,1,0-2.364,1.212,1.212,0,1,1,0,2.364Z" transform="translate(1010.822 -320.943)" fill="#00bebe"/>
  </g>
</svg>
