<svg xmlns="http://www.w3.org/2000/svg" width="18.091" height="14.061" viewBox="0 0 18.091 14.061">
  <path id="路径_31" d="M15.445,73.506v4.5a.752.752,0,0,1-.754.754H11.048a.378.378,0,0,1-.377-.377V74.866a.378.378,0,0,0-.377-.377H8.032a.378.378,0,0,0-.377.377v3.518a.378.378,0,0,1-.377.377H3.635a.752.752,0,0,1-.754-.754v-4.5a.377.377,0,0,1,.138-.292l5.905-4.862a.383.383,0,0,1,.481,0l5.905,4.862A.384.384,0,0,1,15.445,73.506Zm2.626-1.913-2.626-2.164v-4.35a.378.378,0,0,0-.377-.377H13.309a.378.378,0,0,0-.377.377v2.28l-2.811-2.315a1.506,1.506,0,0,0-1.916,0L.255,71.593a.378.378,0,0,0-.05.531l.8.974a.378.378,0,0,0,.531.05l7.388-6.084a.383.383,0,0,1,.481,0l7.388,6.084a.378.378,0,0,0,.531-.05l.8-.974A.378.378,0,0,0,18.071,71.593Z" transform="translate(-0.119 -64.7)" fill="#999"/>
</svg>
