<svg xmlns="http://www.w3.org/2000/svg" width="21.934" height="22.511" viewBox="0 0 21.934 22.511">
  <path id="路径_38" data-name="路径 38" d="M41.061,28.759s1.728-3.672,4.648,0,0,4.754,0,4.754-1.943,1.838-.433,3.028,5.189,4.428,5.189,4.428,1.456,1.941,3.022.538c1.946-1.616,2.7-1.888,4.213-.755,2.637,1.966,3.461,3.945-.535,5.51-4.431,2.161-12.317-5.295-12.317-5.295S37.065,33.513,41.061,28.759Zm10.049,1.9A1.054,1.054,0,0,1,49.919,29.3c.122-.69,1.3-.917,2.378-.588s5.134,2.1,5.3,6.645c0,0-.3,1.274-1.249,1.022-1.02-.271-.752-2.2-.809-2.578A4.7,4.7,0,0,0,51.11,30.659Zm2.807-3.943a1.287,1.287,0,0,1-1.453-1.664c.146-.849,1.588-1.126,2.914-.73s6.281,2.58,6.477,8.134c0,0-.425,1.733-1.515,1.26-.954-.42-1-2.764-1.066-3.227S57.562,26.517,53.917,26.716Z" transform="translate(-39.92 -24.144)" fill="#2a2a32"/>
</svg>
