<svg xmlns="http://www.w3.org/2000/svg" width="11.803" height="7.34" viewBox="0 0 11.803 7.34">
  <g id="组_131" data-name="组 131" transform="translate(-14.781 -203.148)">
    <path id="路径_33" data-name="路径 33" d="M339.764,329.481a1.574,1.574,0,1,1-1.574-1.574,1.594,1.594,0,0,1,1.574,1.574.3.3,0,0,0,.6,0,2.171,2.171,0,1,0-2.171,2.171,2.2,2.2,0,0,0,2.171-2.171A.3.3,0,0,0,339.764,329.481Z" transform="translate(-317.49 -122.713)" fill="#999"/>
    <path id="路径_34" data-name="路径 34" d="M26.011,206.668l-.02.026c.026-.034.017-.021-.025.031q-.129.161-.264.316a11.7,11.7,0,0,1-.933.953,7.277,7.277,0,0,1-3.159,1.8c-2.341.556-4.539-1.118-5.987-2.784q-.122-.14-.238-.286c-.042-.052-.051-.065-.025-.031l-.02-.026v.3l.02-.026c-.026.034-.017.021.025-.031q.129-.161.264-.316a11.7,11.7,0,0,1,.933-.953,7.277,7.277,0,0,1,3.159-1.8c2.341-.556,4.539,1.118,5.987,2.784q.122.14.238.286c.042.052.051.065.025.031l.02.026c.227.305.746.008.516-.3a9.272,9.272,0,0,0-4.309-3.277c-2.484-.828-4.876.591-6.57,2.327a9.377,9.377,0,0,0-.823.95.288.288,0,0,0,0,.3,9.273,9.273,0,0,0,4.31,3.277c2.484.828,4.876-.591,6.57-2.327a9.387,9.387,0,0,0,.823-.95c.23-.31-.289-.607-.516-.3Z" transform="translate(0 0)" fill="#999"/>
  </g>
</svg>
