<svg xmlns="http://www.w3.org/2000/svg" width="42" height="42" viewBox="0 0 42 42">
  <g id="组_2" transform="translate(-880 -887)">
    <g id="组_1" transform="translate(2.446 2.441)">
      <path id="路径_1" d="M300.5,257v2.506s5.342-.253,5.823,5.823H308.8S308.728,257.405,300.5,257Z" transform="translate(598.451 640.608)" fill="#00bebe"/>
      <path id="路径_2" d="M301,166v2.43s9.747.076,10.431,10.431h2.43S314.064,166.684,301,166Z" transform="translate(597.976 727)" fill="#00bebe"/>
      <path id="路径_3" d="M47.8,215.293l-2.582,2.557s-2.81,4.177,4.962,13.266,14.431,6.836,14.431,6.836l2.987-2.987a1.529,1.529,0,0,0-.025-2.127L64.3,229.559s-1.506-1.228-2.544-.19l-2.114,2.114s-2.063.241-5.3-3.431-2.861-4.81-2.861-4.81l2.139-2.139s1.063-1.215.063-2.215l-3.431-3.43A1.728,1.728,0,0,0,47.8,215.293Z" transform="translate(841.274 680.593)" fill="#00bebe"/>
    </g>
    <g id="椭圆_1" transform="translate(880 887)" fill="none" stroke="#00bebe" stroke-width="3">
      <circle cx="21" cy="21" r="21" stroke="none"/>
      <circle cx="21" cy="21" r="19.5" fill="none"/>
    </g>
  </g>
</svg>
