<svg xmlns="http://www.w3.org/2000/svg" width="22.139" height="23.721" viewBox="0 0 22.139 23.721">
  <path id="路径_37" data-name="路径 37" d="M67.949,43.07c-1.309,0-2.372-1.415-2.372-3.163a3.018,3.018,0,0,1,2.018-3.128,8.228,8.228,0,0,1,14.941,0,3.018,3.018,0,0,1,2.018,3.128c0,1.747-1.063,3.163-2.372,3.163h-.791V39.116c0-3.017-2.8-5.535-6.325-5.535S68.74,36.1,68.74,39.116V43.07ZM64.04,55.721A6.393,6.393,0,0,1,64,54.93a9.324,9.324,0,0,1,5.443-8.173,9.493,9.493,0,0,0,11.253,0,9.324,9.324,0,0,1,5.443,8.173,6.661,6.661,0,0,1-.044.791Zm11.025-9.488A5.535,5.535,0,1,1,80.6,40.7,5.535,5.535,0,0,1,75.065,46.232Z" transform="translate(-63.995 -32)" fill="#2a2a32"/>
</svg>
