<svg xmlns="http://www.w3.org/2000/svg" width="14.385" height="13.805" viewBox="0 0 14.385 13.805">
  <g id="组_103" data-name="组 103" transform="translate(-1408 -1433)">
    <g id="组_89" data-name="组 89" transform="translate(1408 1433)">
      <path id="路径_25" data-name="路径 25" d="M155.824,149.077a.348.348,0,0,0-.259-.274,2.714,2.714,0,0,1-1.757-1.313,2.778,2.778,0,0,1-.243-2.2.35.35,0,0,0-.1-.364,7.154,7.154,0,0,0-2.337-1.368.339.339,0,0,0-.363.091,2.7,2.7,0,0,1-4,0,.34.34,0,0,0-.364-.091,7.124,7.124,0,0,0-2.337,1.368.348.348,0,0,0-.1.364,2.78,2.78,0,0,1-.243,2.2,2.7,2.7,0,0,1-1.758,1.313.343.343,0,0,0-.259.274,7.238,7.238,0,0,0,0,2.732.345.345,0,0,0,.259.273,2.713,2.713,0,0,1,1.758,1.313,2.783,2.783,0,0,1,.243,2.2.35.35,0,0,0,.1.364,7.154,7.154,0,0,0,2.337,1.368.339.339,0,0,0,.363-.091,2.7,2.7,0,0,1,4,0,.34.34,0,0,0,.363.092,7.126,7.126,0,0,0,2.337-1.368.351.351,0,0,0,.1-.364,2.779,2.779,0,0,1,.245-2.2,2.711,2.711,0,0,1,1.758-1.313.344.344,0,0,0,.259-.273,7.265,7.265,0,0,0,0-2.734Zm-.636,2.39a3.439,3.439,0,0,0-1.975,1.582,3.523,3.523,0,0,0-.366,2.522A6.467,6.467,0,0,1,151.1,156.6a3.349,3.349,0,0,0-2.336-.939,3.4,3.4,0,0,0-2.336.939,6.441,6.441,0,0,1-1.75-1.024,3.46,3.46,0,0,0-2.341-4.1,6.47,6.47,0,0,1,0-2.048,3.438,3.438,0,0,0,1.973-1.582,3.523,3.523,0,0,0,.366-2.522,6.426,6.426,0,0,1,1.751-1.025,3.4,3.4,0,0,0,2.337.941,3.357,3.357,0,0,0,2.337-.939,6.43,6.43,0,0,1,1.751,1.024,3.526,3.526,0,0,0,.364,2.522,3.437,3.437,0,0,0,1.975,1.582,6.7,6.7,0,0,1,.082,1.024A6.766,6.766,0,0,1,155.188,151.467Z" transform="translate(-141.568 -143.541)" fill="#00bebe"/>
      <path id="路径_26" data-name="路径 26" d="M10.2,2.2a2.074,2.074,0,0,1,3.072,1.73l.023.555A2.074,2.074,0,0,0,14.2,6.121l.529.357a2.074,2.074,0,0,1,0,3.437l-.529.357a2.074,2.074,0,0,0-.911,1.632l-.023.555a2.074,2.074,0,0,1-3.072,1.73l-.217-.119a2.074,2.074,0,0,0-2,0l-.217.119a2,2,0,0,1-3.072-1.543L4.668,11.9a2.074,2.074,0,0,0-.911-1.632l-.529-.357a2,2,0,0,1-.19-3.35l.718-.445A2.074,2.074,0,0,0,4.668,4.49l.023-.721A2,2,0,0,1,7.763,2.2l.217.119a2.074,2.074,0,0,0,2,0Z" transform="translate(-1.765 -1.284)" fill="#00bebe"/>
    </g>
    <g id="组_90" data-name="组 90" transform="translate(1411.457 1436.457)">
      <path id="路径_23" data-name="路径 23" d="M343.954,333.767l3.062-3.25,1.375,1.295-3.064,3.251Zm2.494-2a.578.578,0,0,0-.1.071q-.612.646-1.222,1.295c-.147.156-.294.311-.44.468-.041.043-.1.1-.056.152a.5.5,0,0,0,.176.15c.026.013.1-.026.126-.059.312-.327.621-.656.93-.985l.731-.776c.041-.044.085-.092.052-.155A.292.292,0,0,0,346.447,331.768Zm.619-.638a.4.4,0,0,0-.091.046c-.058.056-.111.116-.164.175a.083.083,0,0,0-.02.043c-.016.114.082.144.149.2a.1.1,0,0,0,.142-.023c.045-.046.089-.092.131-.141a.118.118,0,0,0-.008-.183A1.665,1.665,0,0,0,347.066,331.131Zm1.141,1.416-.493.523c-.09.1-.177.193-.27.285-.05.05-.037.088.008.127a.158.158,0,0,0,.234-.027c.118-.12.234-.242.351-.364a.608.608,0,0,0,.052-.075l.127.124-.385.4c-.1.107-.116.2-.039.271s.157.048.264-.053c.134-.127.273-.248.41-.372l-.017-.029.114.108-.331.344c-.028.029-.056.057-.084.086-.079.085-.085.176-.018.242a.162.162,0,0,0,.241-.024c.107-.108.212-.219.317-.33.031-.033.061-.067.1-.109l.114.12-.375.393c-.02.021-.042.041-.061.064a.153.153,0,0,0,.218.216c.043-.037.077-.081.119-.119.112-.1.226-.2.342-.309a.232.232,0,0,1-.016.339c-.2.212-.4.421-.606.631-.106.11-.211.221-.318.329a.26.26,0,0,1-.408.008c-.365-.349-.728-.7-1.093-1.051l-.076-.072-.281.3c.085.088.164.174.248.255q.617.6,1.237,1.192a.217.217,0,0,0,.359-.008l1.549-1.605a.212.212,0,0,0,0-.332q-.75-.726-1.5-1.448A.188.188,0,0,0,348.207,332.547Zm-2.382-1.725-.592.612c-.044.046-.09.092-.132.14a.16.16,0,0,0,.073.264.14.14,0,0,0,.114-.026c.34-.355.677-.715,1.014-1.073a.1.1,0,0,0,.013-.025l-.622-.6-.722-.7a.219.219,0,0,0-.355.005l-1.542,1.6a.217.217,0,0,0,.008.359l1.339,1.293a.4.4,0,0,0,.034.027l.257-.271c-.141-.156-.273-.312-.415-.457-.2-.2-.407-.394-.61-.593a.252.252,0,0,1-.005-.384q.464-.484.93-.965a.246.246,0,0,1,.36-.026C345.256,330.27,345.534,330.544,345.825,330.822Zm1.814-.971c.185-.189.355-.382.544-.554a.384.384,0,0,1,.526.035q.386.357.765.721a.388.388,0,0,1,.064.524c-.161.2-.343.38-.52.574Zm.781-.281-.253.268.832.785.254-.268Zm-3.269,5.675-.049.022-1.108.424-.442.168a.212.212,0,0,1-.24-.032.207.207,0,0,1-.048-.23l.013-.047.441-1.4.064-.2ZM343.9,334.4l-.1.306c-.031.1-.061.194-.093.29a.087.087,0,0,0,.029.1c.1.085.186.176.28.263a.083.083,0,0,0,.061.023c.2-.074.4-.152.618-.234Zm4.632-2.74.355-.376-1.374-1.295-.354.376Z" transform="translate(-342.982 -329.208)" fill="#fff"/>
      <path id="路径_24" data-name="路径 24" d="M404.522,394.255a.522.522,0,1,1,.524-.515.518.518,0,0,1-.524.515Zm-.208-.517a.207.207,0,0,0,.212.206.21.21,0,1,0-.212-.206Z" transform="translate(-402.857 -392.011)" fill="#fff"/>
    </g>
  </g>
</svg>
