<svg xmlns="http://www.w3.org/2000/svg" width="18" height="18" viewBox="0 0 18 18">
  <g id="组_132" data-name="组 132" transform="translate(-1324 -1271)">
    <path id="多边形_4" data-name="多边形 4" d="M10.122,1.258a2.581,2.581,0,0,1,3.559,1.474h0a2.581,2.581,0,0,0,1.587,1.587h0a2.581,2.581,0,0,1,1.474,3.559h0a2.581,2.581,0,0,0,0,2.244h0a2.581,2.581,0,0,1-1.474,3.559h0a2.581,2.581,0,0,0-1.587,1.587h0a2.581,2.581,0,0,1-3.559,1.474h0a2.581,2.581,0,0,0-2.244,0h0a2.581,2.581,0,0,1-3.559-1.474h0a2.581,2.581,0,0,0-1.587-1.587h0a2.581,2.581,0,0,1-1.474-3.559h0a2.581,2.581,0,0,0,0-2.244h0A2.581,2.581,0,0,1,2.732,4.319h0A2.581,2.581,0,0,0,4.319,2.732h0A2.581,2.581,0,0,1,7.878,1.258h0a2.581,2.581,0,0,0,2.244,0Z" transform="translate(1324 1271)" fill="#ff9e28"/>
    <path id="路径_21" data-name="路径 21" d="M105.407,107.029l4.774-5.04a.788.788,0,0,1,1.144,1.083l-5.271,5.564a.788.788,0,0,1-1.177-.037l-2.954-3.544a.788.788,0,1,1,1.21-1.008l2.5,3a.791.791,0,0,0-.167-.018Z" transform="translate(1226.324 1174.773)" fill="#fff"/>
  </g>
</svg>
